<svg width="385" height="130" viewBox="0 0 385 130" fill="none" xmlns="http://www.w3.org/2000/svg">
<path d="M147.856 104.101C145.006 104.101 142.681 103.24 140.88 101.517C139.08 99.7191 138.18 97.4345 138.18 94.6629V25.4494H175.421C182.397 25.4494 187.985 27.1348 192.185 30.5056C196.461 33.8015 198.598 38.1835 198.598 43.6517V49.382C198.598 52.0037 197.961 54.4757 196.686 56.7978C195.411 59.1198 193.648 60.9925 191.398 62.4157V62.5281C195.073 63.7266 197.998 65.7491 200.174 68.5955C202.424 71.4419 203.549 74.6629 203.549 78.2584V83.8764C203.549 90.0936 201.411 95.0374 197.136 98.7079C192.86 102.303 187.085 104.101 179.809 104.101H147.856ZM176.096 59.0449C178.872 59.0449 181.122 58.1461 182.847 56.3483C184.572 54.5506 185.435 52.2285 185.435 49.382V44.7753C185.435 42.3783 184.46 40.4682 182.509 39.0449C180.634 37.6217 178.121 36.9101 174.971 36.9101H151.344V59.0449H176.096ZM178.684 92.6404C182.359 92.6404 185.21 91.8165 187.235 90.1685C189.335 88.5206 190.385 86.236 190.385 83.3146V78.2584C190.385 75.7116 189.485 73.6891 187.685 72.191C185.885 70.618 183.484 69.8315 180.484 69.8315H151.344V92.6404H178.684Z" fill="#1E293B"/>
<path d="M214.312 48.0337H226.351V55.6742C227.851 53.3521 229.989 51.4794 232.764 50.0562C235.614 48.5581 238.539 47.809 241.54 47.809H248.29V59.0449H241.54C237.264 59.0449 233.814 60.3558 231.189 62.9775C228.563 65.5992 227.251 69.0075 227.251 73.2022V104.101H214.312V48.0337Z" fill="#1E293B"/>
<path d="M264.832 41.7416C262.282 41.7416 260.219 40.9925 258.644 39.4944C257.144 37.9213 256.394 35.9363 256.394 33.5393C256.394 31.1423 257.144 29.1948 258.644 27.6966C260.219 26.1236 262.282 25.3371 264.832 25.3371C267.382 25.3371 269.445 26.1236 271.02 27.6966C272.595 29.1948 273.383 31.1423 273.383 33.5393C273.383 35.9363 272.595 37.9213 271.02 39.4944C269.445 40.9925 267.382 41.7416 264.832 41.7416ZM258.419 48.0337H271.358V104.101H258.419V48.0337Z" fill="#1E293B"/>
<path d="M308.632 105C304.057 105 300.006 104.139 296.481 102.416C293.03 100.693 290.33 98.2584 288.38 95.1124C286.505 91.9663 285.567 88.3333 285.567 84.2135V69.1573C285.567 64.8127 286.505 60.9925 288.38 57.6966C290.33 54.3258 293.03 51.7416 296.481 49.9438C300.006 48.0712 304.057 47.1348 308.632 47.1348H317.633C324.458 47.1348 329.934 49.1198 334.059 53.0899C338.185 57.0599 340.247 62.3408 340.247 68.9326V80.1685H298.506V84.2135C298.506 87.2097 299.406 89.6067 301.206 91.4045C303.081 93.2022 305.557 94.1011 308.632 94.1011H317.295C320.296 94.1011 322.696 93.3895 324.496 91.9663C326.371 90.4682 327.309 88.5206 327.309 86.1236H340.022C340.022 91.8165 337.922 96.3858 333.722 99.8315C329.521 103.277 324.008 105 317.183 105H308.632ZM327.534 70.5056V68.9326C327.534 65.6367 326.634 62.9775 324.833 60.9551C323.033 58.9326 320.671 57.9213 317.745 57.9213H308.632C305.557 57.9213 303.044 59.0075 301.094 61.1798C299.219 63.2772 298.281 66.0487 298.281 69.4944V70.5056H327.534Z" fill="#1E293B"/>
<path d="M356.503 59.1573H346.827V48.0337H356.503V44.1011C356.503 38.0337 358.303 33.3521 361.903 30.0562C365.578 26.6854 370.716 25 377.317 25H384.18V36.0112H377.542C374.767 36.0112 372.704 36.6854 371.354 38.0337C370.079 39.3071 369.441 41.367 369.441 44.2135V48.0337H382.943V59.1573H369.441V104.101H356.503V59.1573Z" fill="#1E293B"/>
<g transform="skewX(-14)">
<rect x="31.2" y="14" width="26" height="102" rx="13" fill="#1570EF"/>
<rect x="65.2" y="14" width="26" height="102" rx="13" fill="#2E90FA"/>
<rect x="99.2" y="14" width="26" height="102" rx="13" fill="#84CAFF"/>
</g>
</svg>
